<svg width="1024" height="1024" viewBox="0 0 108 108" xmlns="http://www.w3.org/2000/svg">
  <g transform="translate(54 55) scale(1.15) translate(-32 -32)"><svg width="64" height="64" viewBox="0 0 64 64">  <g stroke="#7a5230" stroke-width="3.5" stroke-linecap="round" fill="none"><path d="M32 42 L24 32"></path><path d="M32 42 L40 32"></path><path d="M32 44 L32 26"></path></g>
  <path d="M28 34 L36 34 C 36 45 37 52 40 55 C 41 56.5 42 57 43 57 L21 57 C 22 57 23 56.5 24 55 C 27 52 28 45 28 34 Z" fill="#7a5230"></path>
  <path d="M34 34 L36 34 C 36 45 37 52 40 55 C 41 56.5 42 57 43 57 L37 57 C 36 56 35 53 34.5 49 C 34 44 34 39 34 34 Z" fill="#6a4526"></path>
  <g fill="#5cb64a"><circle cx="32" cy="24" r="16"></circle><circle cx="19" cy="28" r="10"></circle><circle cx="45" cy="28" r="10"></circle><circle cx="24" cy="16" r="9.5"></circle><circle cx="40" cy="16" r="9.5"></circle></g>
  <g fill="#3f8f3a"><circle cx="17" cy="31" r="6"></circle><circle cx="47" cy="31" r="6"></circle><circle cx="32" cy="35" r="7"></circle></g>
  <g fill="#86d16a"><circle cx="24" cy="15" r="6"></circle><circle cx="37" cy="15" r="5.5"></circle><circle cx="20" cy="24" r="4.5"></circle><circle cx="32" cy="20" r="5"></circle></g>
  <g fill="#aee584"><circle cx="22" cy="13" r="2"></circle><circle cx="35" cy="13" r="1.8"></circle><circle cx="29" cy="18" r="1.8"></circle><circle cx="42" cy="24" r="1.6"></circle></g></svg></g>
</svg>